# xmcd CD database file
#
# Track frame offsets:
#	150
#	19110
#	37389
#	59070
#	76812
#	99355
#	116928
#	135888
#	154167
#	175848
#
# Disc length: 2581 seconds
#
# Revision: 5
# Processed by: cddbd v1.5.2PL0 Copyright (c) Steve Scherf et al.
# Submitted via: CDex 1.70beta2
#
DISCID=810a130a
DTITLE=斉藤 由貴 - 悲しみよこんにちは　21st Century Ver.
DYEAR=2007
DGENRE=New Age
TTITLE0=悲しみよこんにちは -21st Century Ver.-
TTITLE1=夢の中へ -21st Century Ver.-
TTITLE2=白い炎 -21st Century Ver.-
TTITLE3=家族の食卓 -21st Century Ver.-
TTITLE4=悲しみよこんにちは -L.F.J.B Remix-
TTITLE5=夢の中へ -Funta Remix-
TTITLE6=悲しみよこんにちは -21st Century Ver. Instrumental-
TTITLE7=夢の中へ -21st Century Ver. Instrumental-
TTITLE8=白い炎 -21st Century Ver. Instrumental-
TTITLE9=家族の食卓 -21st Century Ver. Instrumental-
EXTD=YEAR: 2007
EXTT0=
EXTT1=
EXTT2=
EXTT3=
EXTT4=
EXTT5=
EXTT6=
EXTT7=
EXTT8=
EXTT9=
PLAYORDER=
